<?xml version="1.0" encoding="utf-8"?>
<!-- Generator: Adobe Illustrator 23.0.6, SVG Export Plug-In . SVG Version: 6.00 Build 0)  -->
<svg version="1.1" xmlns="http://www.w3.org/2000/svg" xmlns:xlink="http://www.w3.org/1999/xlink" x="0px" y="0px"
	 viewBox="0 0 179.8 37.21" style="enable-background:new 0 0 179.8 37.21;" xml:space="preserve">
<style type="text/css">
	.st0{display:none;}
	.st1{display:inline;}
	.st2{fill:#163029;}
	.st3{fill:#4FC4CE;}
	.st4{fill:#3DAE2B;}
	.st5{fill:#FFFFFF;}
</style>
<g id="Wordmark__x28_EN_x29_">
</g>
<g id="Wordmark__x28_FR_x29_" class="st0">
	<g class="st1">
		<g>
			<path class="st2" d="M243.19,22.2c2.08,0,3.01-1.09,3.01-3.37V18.7c0-2.32-0.92-3.31-3.04-3.31h-0.77v6.82H243.19L243.19,22.2z
				 M238.86,12.69h4.44c4.34,0,6.54,2.17,6.54,5.96v0.14c0,3.81-2.25,6.12-6.56,6.12h-4.42V12.69L238.86,12.69z M230.48,15.4h-3.16
				v-2.72h9.84v2.72H234v9.5h-3.52V15.4L230.48,15.4z M214.56,22.08h2.82c0.1,0.65,0.39,1.08,1.26,1.08c0.75,0,1.09-0.29,1.09-0.8
				c0-0.5-0.43-0.7-1.66-0.87c-2.39-0.31-3.4-1.02-3.4-2.82c0-1.98,1.76-2.94,3.81-2.94c2.22,0,3.76,0.75,3.96,2.9h-2.77
				c-0.14-0.63-0.44-0.99-1.14-0.99c-0.67,0-1.01,0.29-1.01,0.75c0,0.44,0.41,0.68,1.5,0.82c2.48,0.31,3.67,0.92,3.67,2.82
				c0,2.12-1.57,3.07-4.05,3.07C216.11,25.11,214.62,24.03,214.56,22.08L214.56,22.08z M210.22,19.42
				c-0.05-1.06-0.58-1.67-1.57-1.67c-0.92,0-1.55,0.61-1.71,1.67H210.22L210.22,19.42z M203.81,20.55v-0.14
				c0-2.87,2.14-4.68,4.83-4.68c2.44,0,4.54,1.4,4.54,4.61v0.82h-6.29c0.12,1.18,0.77,1.84,1.86,1.84c1.01,0,1.44-0.46,1.55-1.06
				h2.87c-0.27,2.02-1.83,3.16-4.53,3.16C205.86,25.11,203.81,23.47,203.81,20.55L203.81,20.55z M196.86,15.97h3.06v1.78
				c0.56-1.33,1.5-1.91,2.89-1.9v2.85c-1.86-0.07-2.89,0.53-2.89,1.96v4.24h-3.06V15.97L196.86,15.97z M192.25,19.42
				c-0.05-1.06-0.58-1.67-1.57-1.67c-0.92,0-1.55,0.61-1.71,1.67H192.25L192.25,19.42z M187.8,12.11h3.07l0.91,2.84h-2.19
				L187.8,12.11L187.8,12.11z M185.84,20.55v-0.14c0-2.87,2.14-4.68,4.83-4.68c2.44,0,4.54,1.4,4.54,4.61v0.82h-6.29
				c0.12,1.18,0.77,1.84,1.86,1.84c1.01,0,1.44-0.46,1.55-1.06h2.87c-0.27,2.02-1.83,3.16-4.53,3.16
				C187.89,25.11,185.84,23.47,185.84,20.55L185.84,20.55z M181.16,15.97h3.06v8.93h-3.06V15.97L181.16,15.97z M181.11,12.36h3.16
				v2.6h-3.16V12.36L181.11,12.36z M176.03,12.36h3.04V24.9h-3.04V12.36L176.03,12.36z M170.87,15.97h3.06v8.93h-3.06V15.97
				L170.87,15.97z M170.82,12.36h3.16v2.6h-3.16V12.36L170.82,12.36z M166.14,20.49v-0.14c0-1.57-0.68-2.32-1.76-2.32
				c-1.11,0-1.78,0.8-1.78,2.31v0.14c0,1.52,0.67,2.29,1.78,2.29C165.53,22.77,166.14,21.96,166.14,20.49L166.14,20.49z
				 M162.69,23.52v1.38h-3.06V12.36h3.06v4.94c0.51-0.85,1.44-1.57,2.78-1.57c2.08,0,3.78,1.57,3.78,4.63v0.14
				c0,3.07-1.69,4.61-3.79,4.61C164.13,25.11,163.14,24.47,162.69,23.52L162.69,23.52z M154.92,20.49v-0.14
				c0-1.5-0.6-2.34-1.76-2.34c-1.14,0-1.78,0.8-1.78,2.31v0.14c0,1.54,0.6,2.37,1.78,2.37C154.3,22.83,154.92,21.98,154.92,20.49
				L154.92,20.49z M148.26,20.55v-0.14c0-2.87,2.14-4.68,4.9-4.68c2.75,0,4.87,1.76,4.87,4.6v0.14c0,2.9-2.14,4.65-4.89,4.65
				S148.26,23.43,148.26,20.55L148.26,20.55z M132.92,12.69h4.56l2.36,6.51l2.32-6.51h4.48V24.9h-3.48v-7.53l-2.99,7.53H139
				l-2.96-7.53v7.53h-3.13V12.69L132.92,12.69z M119.34,22.08h2.82c0.1,0.65,0.39,1.08,1.26,1.08c0.75,0,1.09-0.29,1.09-0.8
				c0-0.5-0.43-0.7-1.66-0.87c-2.39-0.31-3.4-1.02-3.4-2.82c0-1.98,1.76-2.94,3.81-2.94c2.22,0,3.76,0.75,3.96,2.9h-2.77
				c-0.14-0.63-0.44-0.99-1.14-0.99c-0.67,0-1.01,0.29-1.01,0.75c0,0.44,0.41,0.68,1.5,0.82c2.48,0.31,3.67,0.92,3.67,2.82
				c0,2.12-1.57,3.07-4.05,3.07C120.89,25.11,119.4,24.03,119.34,22.08L119.34,22.08z M112.49,15.97h3.06v1.78
				c0.56-1.33,1.5-1.91,2.89-1.9v2.85c-1.86-0.07-2.89,0.53-2.89,1.96v4.24h-3.06V15.97L112.49,15.97z M101.52,21.79v-5.83h3.06
				v5.33c0,1.01,0.39,1.5,1.26,1.5c0.92,0,1.52-0.55,1.52-1.69v-5.14h3.06v8.93h-3.06v-1.38c-0.48,0.92-1.35,1.59-2.84,1.59
				C102.8,25.11,101.52,24.05,101.52,21.79L101.52,21.79z M96.94,19.42c-0.05-1.06-0.58-1.67-1.57-1.67c-0.92,0-1.55,0.61-1.71,1.67
				H96.94L96.94,19.42z M90.53,20.55v-0.14c0-2.87,2.14-4.68,4.83-4.68c2.44,0,4.54,1.4,4.54,4.61v0.82h-6.29
				c0.12,1.18,0.77,1.84,1.86,1.84c1.01,0,1.44-0.46,1.55-1.06h2.87c-0.27,2.02-1.83,3.16-4.53,3.16
				C92.58,25.11,90.53,23.47,90.53,20.55L90.53,20.55z M85.87,12.36h3.04V24.9h-3.04V12.36L85.87,12.36z M80.83,20.48v-0.14
				c0-1.55-0.63-2.31-1.67-2.31c-1.08,0-1.71,0.77-1.71,2.32v0.14c0,1.5,0.65,2.27,1.66,2.27C80.13,22.77,80.83,22,80.83,20.48
				L80.83,20.48z M74.34,20.53v-0.14c0-3.04,1.74-4.66,3.74-4.66c1.35,0,2.15,0.58,2.66,1.49v-1.25h3.06v8.93h-3.06v-1.43
				c-0.46,0.91-1.4,1.64-2.68,1.64C76.08,25.11,74.34,23.62,74.34,20.53L74.34,20.53z M62.41,12.69h3.78l2.48,8.58l2.49-8.58h3.28
				l-4,12.21h-3.98L62.41,12.69L62.41,12.69z"/>
		</g>
	</g>
</g>
<g id="TD_Shield">
</g>
<g id="Layer_5">
	<g>
		<g>
			<g>
				<path class="st2" d="M171.49,22.02h2.88c0.1,0.66,0.4,1.1,1.29,1.1c0.77,0,1.12-0.3,1.12-0.82c0-0.51-0.44-0.71-1.69-0.89
					c-2.44-0.31-3.47-1.05-3.47-2.88c0-2.02,1.79-3,3.89-3c2.27,0,3.83,0.77,4.04,2.96h-2.82c-0.14-0.64-0.45-1.01-1.17-1.01
					c-0.68,0-1.03,0.3-1.03,0.77c0,0.45,0.42,0.7,1.53,0.84c2.53,0.31,3.75,0.94,3.75,2.88c0,2.16-1.6,3.14-4.13,3.14
					C173.07,25.11,171.56,24.01,171.49,22.02L171.49,22.02z M167.06,19.3c-0.05-1.08-0.59-1.71-1.6-1.71
					c-0.94,0-1.59,0.63-1.74,1.71H167.06L167.06,19.3z M160.52,20.45v-0.14c0-2.93,2.18-4.77,4.93-4.77c2.49,0,4.64,1.43,4.64,4.7
					v0.84h-6.41c0.12,1.2,0.78,1.88,1.9,1.88c1.03,0,1.46-0.47,1.59-1.08h2.93c-0.28,2.06-1.86,3.22-4.62,3.22
					C162.62,25.11,160.52,23.43,160.52,20.45L160.52,20.45z M155.72,15.78h3.12v9.11h-3.12V15.78L155.72,15.78z M155.66,12.11h3.22
					v2.65h-3.22V12.11L155.66,12.11z M149.11,21.97v-4.06h-1.1v-2.13h1.1v-1.9h3.12v1.9h1.79v2.13h-1.79v3.76
					c0,0.66,0.33,0.96,0.92,0.96c0.35,0,0.61-0.05,0.89-0.16v2.37c-0.4,0.1-0.99,0.26-1.72,0.26
					C150.26,25.11,149.11,24.11,149.11,21.97L149.11,21.97z M143.24,15.78h3.12v9.11h-3.12V15.78L143.24,15.78z M143.19,12.11h3.22
					v2.65h-3.22V12.11L143.19,12.11z M135.48,15.78h3.12v1.81c0.57-1.36,1.53-1.95,2.94-1.93v2.91c-1.9-0.07-2.94,0.54-2.94,2v4.32
					h-3.12V15.78L135.48,15.78z M124.3,21.73v-5.94h3.12v5.44c0,1.03,0.4,1.53,1.29,1.53c0.94,0,1.55-0.56,1.55-1.73v-5.25h3.12
					v9.11h-3.12v-1.41c-0.49,0.94-1.38,1.62-2.89,1.62C125.6,25.11,124.3,24.03,124.3,21.73L124.3,21.73z M113.3,20.45v-0.14
					c0-3.03,2.18-4.77,4.86-4.77c2.23,0,4.29,0.98,4.46,3.75h-2.93c-0.14-0.85-0.56-1.32-1.46-1.32c-1.1,0-1.74,0.78-1.74,2.32v0.14
					c0,1.59,0.61,2.4,1.79,2.4c0.87,0,1.48-0.52,1.59-1.52h2.81c-0.09,2.3-1.64,3.8-4.58,3.8C115.37,25.11,113.3,23.52,113.3,20.45
					L113.3,20.45z M108.77,19.3c-0.05-1.08-0.59-1.71-1.6-1.71c-0.94,0-1.59,0.63-1.74,1.71H108.77L108.77,19.3z M102.23,20.45
					v-0.14c0-2.93,2.18-4.77,4.93-4.77c2.49,0,4.64,1.43,4.64,4.7v0.84h-6.41c0.12,1.2,0.78,1.88,1.9,1.88
					c1.03,0,1.46-0.47,1.59-1.08h2.93c-0.28,2.06-1.86,3.22-4.62,3.22C104.33,25.11,102.23,23.43,102.23,20.45L102.23,20.45z
					 M90.33,20.94h3.38c0.09,0.89,0.51,1.62,1.99,1.62c1.03,0,1.6-0.51,1.6-1.24c0-0.68-0.47-0.99-1.97-1.2
					c-3.33-0.4-4.71-1.36-4.71-3.96c0-2.27,1.85-3.9,4.83-3.9c3,0,4.69,1.25,4.91,3.89h-3.29c-0.12-0.89-0.64-1.34-1.64-1.34
					c-0.94,0-1.43,0.44-1.43,1.06c0,0.7,0.38,1.01,1.93,1.2c2.98,0.38,4.77,1.13,4.77,3.89c0,2.28-1.81,4.15-5.02,4.15
					C92.21,25.11,90.44,23.64,90.33,20.94L90.33,20.94z M78.6,22.14c2.13,0,3.07-1.12,3.07-3.43v-0.14c0-2.37-0.94-3.38-3.1-3.38
					h-0.78v6.95H78.6L78.6,22.14z M74.2,12.44h4.53c4.43,0,6.67,2.21,6.67,6.08v0.14c0,3.89-2.3,6.24-6.69,6.24H74.2V12.44
					L74.2,12.44z M65.64,15.21h-3.22v-2.77h10.04v2.77h-3.22v9.69h-3.59V15.21L65.64,15.21z"/>
			</g>
		</g>
		<g>
			<polygon class="st4" points="0,37.21 41.61,37.21 41.61,0 0,0 0,37.21 			"/>
			<path class="st5" d="M27.32,29.16h-9.69V11.7h4.87v14.37h4.68c3.23,0,4.59-2.24,4.59-8.01c0-5.8-1.54-7.49-4.82-7.49H16.26v18.58
				h-4.82V10.58H4.37v-3.1h24.07c5.81,0,8.56,3,8.56,10.54C37.01,27.95,32.89,29.16,27.32,29.16"/>
		</g>
	</g>
</g>
</svg>
